<?xml version="1.0" standalone="no"?>
<!DOCTYPE svg PUBLIC "-//W3C//DTD SVG 20010904//EN"
 "http://www.w3.org/TR/2001/REC-SVG-20010904/DTD/svg10.dtd">
<svg version="1.0" xmlns="http://www.w3.org/2000/svg"
 width="512.000000pt" height="512.000000pt" viewBox="0 0 512.000000 512.000000"
 preserveAspectRatio="xMidYMid meet">
<metadata>
Created by potrace 1.14, written by Peter Selinger 2001-2017
</metadata>
<g transform="translate(0.000000,512.000000) scale(0.100000,-0.100000)"
fill="#000000" stroke="none">
<path d="M1492 4142 c-7 -5 -23 -27 -35 -49 -117 -212 -270 -465 -306 -505
-25 -28 -101 -87 -173 -135 -262 -172 -348 -306 -375 -589 -11 -107 -10 -979
0 -1079 12 -108 49 -252 78 -298 44 -70 120 -157 177 -203 125 -100 254 -136
542 -149 62 -3 2089 -7 2120 -5 3 0 77 3 165 5 196 5 237 9 345 36 135 34 221
87 322 198 97 108 148 233 165 410 10 95 10 978 1 1086 -18 207 -73 333 -198
455 -57 56 -77 71 -210 156 -129 82 -169 133 -329 412 -180 317 -174 313 -274
154 -95 -153 -257 -300 -427 -389 -69 -36 -178 -80 -223 -89 -10 -2 -28 -6
-39 -10 -45 -14 -188 -30 -263 -28 -314 5 -577 116 -793 333 -71 71 -182 217
-182 238 0 14 -45 53 -61 53 -8 0 -20 -4 -27 -8z"/>
</g>
</svg>
